<svg width="102" height="53" viewBox="0 0 102 53" fill="none" xmlns="http://www.w3.org/2000/svg">
<path fill-rule="evenodd" clip-rule="evenodd" d="M93.293 11.8251C92.199 11.8251 91.1624 12.0752 90.2372 12.521C90.0065 8.83294 86.9344 5.90284 83.1893 5.90284C82.0933 5.90284 81.0549 6.15372 80.1284 6.60117C79.8654 2.94444 76.8082 0.0489349 73.0856 0.0489349C69.191 0.0489349 66.0225 3.21745 66.0225 7.11218V18.8201C66.0225 19.9309 66.9231 20.8314 68.0339 20.8314C69.1446 20.8314 70.0452 19.9309 70.0452 18.8201V7.11218C70.0452 5.43554 71.4091 4.07159 73.0856 4.07159C74.7623 4.07159 76.1262 5.43554 76.1262 7.11218V39.3284V45.1823C76.1262 46.859 74.7623 48.2229 73.0856 48.2229C71.4091 48.2229 70.0452 46.859 70.0452 45.1823V33.4744C70.0452 32.3636 69.1446 31.4631 68.0339 31.4631H40.906C39.7952 31.4631 38.8947 32.3636 38.8947 33.4744C38.8947 34.5852 39.7952 35.4857 40.906 35.4857H66.0225V45.1823C66.0225 49.0771 69.191 52.2456 73.0856 52.2456C76.8083 52.2456 79.8656 49.3501 80.1284 45.6933C81.0549 46.1408 82.0933 46.3917 83.1893 46.3917C86.9344 46.3917 90.0065 43.4613 90.2372 39.7735C91.1624 40.2193 92.199 40.4694 93.293 40.4694C97.1876 40.4694 100.356 37.3009 100.356 33.4063V18.8881C100.356 14.9935 97.1876 11.8251 93.293 11.8251ZM86.2301 39.3284C86.2301 41.0051 84.8661 42.369 83.1895 42.369C81.5128 42.369 80.1489 41.0051 80.1489 39.3284V12.9661C80.1489 11.2894 81.5128 9.92549 83.1895 9.92549C84.8661 9.92549 86.2301 11.2894 86.2301 12.9661V39.3284ZM93.293 36.4467C94.9696 36.4467 96.3336 35.0828 96.3336 33.4063V18.8881C96.3336 17.2117 94.9696 15.8478 93.293 15.8478C91.6165 15.8478 90.2526 17.2117 90.2526 18.8881V33.4063C90.2526 35.0828 91.6165 36.4467 93.293 36.4467Z" fill="#EE4D64"/>
<path fill-rule="evenodd" clip-rule="evenodd" d="M33.0314 31.4631C31.9206 31.4631 31.0201 32.3636 31.0201 33.4744V45.1823C31.0201 46.859 29.6561 48.2229 27.9795 48.2229C26.3028 48.2229 24.9389 46.859 24.9389 45.1823V39.3284V12.9661V7.11218C24.9389 5.43554 26.3028 4.07159 27.9795 4.07159C29.6561 4.07159 31.0201 5.43554 31.0201 7.11218V18.8201C31.0201 19.9309 31.9206 20.8314 33.0314 20.8314H60.1594C61.2702 20.8314 62.1707 19.9309 62.1707 18.8201C62.1707 17.7093 61.2702 16.8088 60.1594 16.8088H35.0427V7.11218C35.0427 3.21745 31.8742 0.0489349 27.9795 0.0489349C24.2568 0.0489349 21.1997 2.94444 20.9367 6.60117C20.0102 6.15372 18.9717 5.90284 17.8756 5.90284C14.1305 5.90284 11.0584 8.83321 10.8278 12.521C9.90259 12.0752 8.86595 11.8251 7.77192 11.8251C3.87719 11.8251 0.708675 14.9936 0.708675 18.8884V33.4063C0.708675 37.3009 3.87719 40.4692 7.77192 40.4692C8.86595 40.4692 9.90259 40.2192 10.8278 39.7733C11.0584 43.4614 14.1305 46.3915 17.8756 46.3915C18.9717 46.3915 20.01 46.1407 20.9367 45.6932C21.1997 49.3499 24.2568 52.2454 27.9795 52.2454C31.8742 52.2454 35.0427 49.0769 35.0427 45.1822V33.4743C35.0427 32.3635 34.1423 31.4631 33.0314 31.4631ZM7.77219 36.4467C6.09568 36.4467 4.7316 35.0828 4.7316 33.4064V18.8884C4.7316 17.2117 6.09555 15.8478 7.77219 15.8478C9.4487 15.8478 10.8126 17.2117 10.8126 18.8884V33.4063C10.8125 35.0828 9.44857 36.4467 7.77219 36.4467ZM14.8352 39.3284C14.8352 41.0051 16.1993 42.369 17.8758 42.369C19.5524 42.369 20.9164 41.0051 20.9164 39.3284V12.9661C20.9164 11.2894 19.5524 9.92549 17.8758 9.92549C16.1991 9.92549 14.8352 11.2894 14.8352 12.9661V39.3284Z" fill="#EE4D64"/>
<path d="M31.0143 26.2647V26.9391C31.0143 28.0499 31.9148 28.9504 33.0256 28.9504C34.1364 28.9504 35.0369 28.0499 35.0369 26.9391V26.2647C35.0369 25.1539 34.1364 24.2534 33.0256 24.2534C31.9148 24.2534 31.0143 25.1539 31.0143 26.2647Z" fill="#EE4D64"/>
<path d="M70.0453 26.0411V25.3667C70.0453 24.2559 69.1446 23.3554 68.034 23.3554C66.9231 23.3554 66.0227 24.2559 66.0227 25.3667V26.0411C66.0227 27.1519 66.9231 28.0524 68.034 28.0524C69.1448 28.0524 70.0453 27.1519 70.0453 26.0411Z" fill="#EE4D64"/>
</svg>
